<svg width="48" height="48" viewBox="0 0 48 48" xmlns="http://www.w3.org/2000/svg">
    <g fill="#000" fill-rule="evenodd">
        <path d="M24 0c13.255 0 24 10.745 24 24S37.255 48 24 48 0 37.255 0 24 10.745 0 24 0zm.925 11.2h-1.851c-1.887.002-2.67.011-3.411.037l-.223.009c-.223.008-.453.019-.717.03-1.362.063-2.293.279-3.106.595a6.268 6.268 0 0 0-2.268 1.476 6.284 6.284 0 0 0-1.477 2.267c-.318.815-.534 1.745-.595 3.107-.012.264-.022.494-.03.717l-.009.223a93.04 93.04 0 0 0-.037 3.136l-.001.875v1.53c.004 1.69.014 2.43.038 3.135l.008.222.031.717c.063 1.363.279 2.293.595 3.107a6.272 6.272 0 0 0 1.476 2.267 6.268 6.268 0 0 0 2.267 1.477c.814.317 1.745.533 3.107.595a113 113 0 0 0 .717.031l.223.008c.742.026 1.523.036 3.41.038h1.855c2.642-.003 3.116-.02 4.35-.077 1.362-.062 2.293-.278 3.108-.595a6.263 6.263 0 0 0 2.266-1.477 6.284 6.284 0 0 0 1.477-2.267c.315-.814.53-1.745.595-3.107l.035-.828.007-.223a98 98 0 0 0 .034-3.023v-2.405c-.004-2.402-.023-2.886-.076-4.076-.064-1.362-.28-2.292-.595-3.106a6.282 6.282 0 0 0-1.477-2.268 6.256 6.256 0 0 0-2.267-1.476c-.816-.316-1.747-.532-3.11-.594-.264-.012-.493-.023-.716-.031l-.223-.009c-.742-.026-1.523-.035-3.41-.037z"/>
        <path d="M22.853 13.504v.003H25.182c1.572.003 2.3.01 2.958.032l.327.011.707.03c1.248.058 1.925.266 2.376.442.597.232 1.023.509 1.471.957.448.448.725.875.958 1.472.175.45.384 1.128.44 2.376.013.261.023.487.031.706l.012.327c.022.696.03 1.468.032 3.227v1.821c-.002 1.76-.01 2.532-.032 3.227l-.012.327c-.008.22-.018.445-.03.706-.057 1.248-.266 1.926-.441 2.376a3.958 3.958 0 0 1-.958 1.47 3.958 3.958 0 0 1-1.47.958c-.452.176-1.13.384-2.377.441-.262.012-.487.022-.707.03l-.327.012a96.54 96.54 0 0 1-2.958.032H22.82a96.53 96.53 0 0 1-2.958-.032l-.327-.011-.706-.03c-1.248-.058-1.925-.267-2.377-.442a3.965 3.965 0 0 1-1.472-.957 3.967 3.967 0 0 1-.958-1.472c-.175-.45-.384-1.128-.44-2.376l-.031-.706-.011-.327a97.795 97.795 0 0 1-.031-2.958v-2.363c.002-1.57.01-2.298.03-2.956l.012-.327.03-.706c.057-1.248.266-1.926.441-2.377.232-.597.51-1.024.958-1.472a3.972 3.972 0 0 1 1.472-.958c.451-.176 1.129-.384 2.377-.441 1.18-.053 1.638-.07 4.024-.072zm1.148 3.924a6.574 6.574 0 1 0 .236.004L24 17.428zm6.833-1.795a1.536 1.536 0 1 0 0 3.073 1.536 1.536 0 0 0 0-3.073z"/>
        <path d="M28.268 24.001A4.267 4.267 0 1 1 24 19.734a4.267 4.267 0 0 1 4.267 4.267z" fill-rule="nonzero"/>
    </g>
</svg>
