<svg width="48" height="48" viewBox="0 0 48 48" xmlns="http://www.w3.org/2000/svg">
    <g fill="#000" fill-rule="evenodd">
        <path d="M24 0c13.255 0 24 10.745 24 24S37.255 48 24 48 0 37.255 0 24 10.745 0 24 0zm.466 15.2H24c-5.337 0-8.67.182-10.002.549-1.101.302-1.969 1.192-2.263 2.323-.357 1.367-.535 3.476-.535 6.327s.178 4.96.535 6.327c.294 1.131 1.162 2.022 2.263 2.324 1.331.366 4.665.55 10.002.55 5.337 0 8.67-.184 10.002-.55 1.101-.302 1.969-1.193 2.263-2.324.357-1.367.535-3.476.535-6.327s-.178-4.96-.535-6.327c-.294-1.13-1.162-2.021-2.263-2.323-1.292-.356-4.47-.539-9.536-.55z"/>
        <path d="m21.6 20.8 6.4 4-6.4 4v-8z" fill-rule="nonzero"/>
    </g>
</svg>
