<?xml version="1.0" encoding="UTF-8"?>
<svg width="361px" height="64px" viewBox="0 0 361 64" version="1.1" xmlns="http://www.w3.org/2000/svg" xmlns:xlink="http://www.w3.org/1999/xlink">
    <title>5E6D8FF4-4197-47B3-82CA-17ED48C5F1BD</title>
    <g id="Desktop" stroke="none" stroke-width="1" fill="none" fill-rule="evenodd">
        <g id="5_Coming_soon_TPT" transform="translate(-540.000000, -949.000000)" fill="#000000">
            <g id="Footer_dark" transform="translate(0.000000, 891.968944)">
                <g id="Krafton-BGMI-logo" transform="translate(540.000000, 57.031056)">
                    <g id="Group-18">
                        <path d="M3.54157999,45.0698605 L68.4588925,45.0698605 L68.4588925,3.56089711 L3.54157999,3.56089711 L3.54157999,45.0698605 Z M70.210784,48.6307576 L1.78921604,48.6307576 C0.802714035,48.6307576 0,47.8236653 0,46.8317825 L0,1.7989751 C0,0.807092342 0.802714035,0 1.78921604,0 L70.210784,0 C71.1977584,0 72,0.807092342 72,1.7989751 L72,46.8317825 C72,47.8236653 71.1977584,48.6307576 70.210784,48.6307576 L70.210784,48.6307576 Z" id="Fill-1"></path>
                        <path d="M15.8309004,26.0658524 L15.8309004,21.1392163 C15.8309004,21.0717607 15.7973555,21.0380329 15.7302658,21.0380329 L12.4749982,21.0380329 L12.4749982,26.1670358 L15.7302658,26.1670358 C15.7973555,26.1670358 15.8309004,26.133308 15.8309004,26.0658524 M15.8309004,16.5503334 L15.8309004,12.0963618 C15.8309004,12.0289062 15.7973555,11.9951783 15.7302658,11.9951783 L12.4749982,11.9951783 L12.4749982,16.6515169 L15.7302658,16.6515169 C15.7973555,16.6515169 15.8309004,16.617789 15.8309004,16.5503334 M17.3073461,30.89083 L7.4409087,30.89083 L7.4409087,7.27090917 L17.3073461,7.27090917 C19.4216165,7.27090917 20.8649899,8.72215525 20.8649899,10.8479576 L20.8649899,16.0444162 C20.8649899,17.4277316 20.2271653,18.5074967 19.1868025,18.7773192 L19.1868025,18.8447749 C20.2271653,19.1150724 20.8649899,20.2280903 20.8649899,21.6118807 L20.8649899,27.3142565 C20.8649899,29.4400589 19.4216165,30.89083 17.3073461,30.89083" id="Fill-3"></path>
                        <path d="M33.3487286,30.9585706 L27.0394624,30.9585706 C24.9251921,30.9585706 23.4822912,29.5073245 23.4822912,27.3819972 L23.4822912,10.780312 C23.4822912,8.65450961 24.9251921,7.20373856 27.0394624,7.20373856 L33.3487286,7.20373856 C35.462999,7.20373856 36.9058999,8.65450961 36.9058999,10.780312 L36.9058999,14.8632777 L31.8722828,14.8632777 L31.8722828,12.0961718 C31.8722828,12.0287161 31.838738,11.9949883 31.7716483,11.9949883 L28.6170152,11.9949883 C28.5499255,11.9949883 28.5159082,12.0287161 28.5159082,12.0961718 L28.5159082,26.0656624 C28.5159082,26.133118 28.5499255,26.1673208 28.6170152,26.1673208 L31.7716483,26.1673208 C31.838738,26.1673208 31.8722828,26.133118 31.8722828,26.0656624 L31.8722828,22.118083 L29.7580125,22.118083 L29.7580125,17.3938138 L36.9058999,17.3938138 L36.9058999,27.3819972 C36.9058999,29.5073245 35.462999,30.9585706 33.3487286,30.9585706" id="Fill-4"></path>
                        <polygon id="Fill-5" points="52.0414297 30.89102 52.0414297 19.2496986 51.9407952 19.8572743 49.1551554 30.89102 47.2426266 30.89102 44.4905317 19.8572743 44.3898972 19.2496986 44.3898972 30.89102 39.5235319 30.89102 39.5235319 7.27109918 45.3296254 7.27109918 48.2154272 18.9798761 51.1017015 7.27109918 56.907795 7.27109918 56.907795 30.89102"></polygon>
                        <polygon id="Fill-6" points="59.5250963 30.8908775 64.5591858 30.8908775 64.5591858 7.27095667 59.5250963 7.27095667"></polygon>
                        <polygon id="Fill-7" points="43.6966527 38.4259562 44.7086677 38.4259562 44.7086677 35.6502996 43.6966527 35.6502996"></polygon>
                        <polygon id="Fill-8" points="31.8996857 37.669408 32.6943679 37.669408 32.2970268 36.1326548"></polygon>
                        <polygon id="Fill-9" points="27.5615809 37.0706681 28.4819381 37.0706681 28.4819381 35.6498245 27.5615809 35.6498245"></polygon>
                        <path d="M49.8187292,39.3510484 L48.714584,39.3510484 L47.7483979,36.8632658 L47.7483979,39.0745753 L47.886357,39.3510484 L46.6900816,39.3510484 L46.8280407,39.0745753 L46.8280407,35.0015854 L46.6900816,34.7251124 L47.7942268,34.7251124 L48.7604129,37.21337 L48.7604129,35.0015854 L48.6224538,34.7251124 L49.8187292,34.7251124 L49.6807701,35.0015854 L49.6807701,39.0745753 L49.8187292,39.3510484 Z M45.6294029,38.7035693 L45.6289305,38.7035693 L44.9849639,39.3510484 L43.4206401,39.3510484 L42.7766735,38.7035693 L42.7766735,38.7035693 L42.7766735,35.3725914 L43.4206401,34.7251124 L44.9849639,34.7251124 L45.6294029,35.3725914 L45.6294029,38.7035693 Z M41.8095424,35.7892012 L41.5336242,35.6500145 L40.797055,35.6500145 L40.797055,39.0745753 L40.9354865,39.3510484 L39.7392111,39.3510484 L39.8771702,39.0745753 L39.8771702,35.6500145 L39.1424908,35.6500145 L38.8670451,35.7892012 L38.8670451,34.7251124 L41.8095424,34.7251124 L41.8095424,35.7892012 Z M37.8947169,35.7892012 L37.6187988,35.6500145 L36.2382629,35.6500145 L36.2382629,36.5844175 L37.1581477,36.5844175 L37.1581477,36.5844175 L37.4345383,36.4452309 L37.4345383,37.6489813 L37.1586201,37.5097947 L36.2382629,37.5097947 L36.2382629,39.0745753 L36.376222,39.3510484 L35.1799466,39.3510484 L35.3179057,39.0745753 L35.3179057,35.0015854 L35.1799466,34.7251124 L37.8947169,34.7251124 L37.8947169,35.7892012 Z M32.9872474,39.3510484 L33.0406357,39.0090198 L32.9239375,38.5577322 L31.6700216,38.5577322 L31.5533233,39.0090198 L31.6067116,39.3510484 L30.4567375,39.3510484 L30.5734358,39.0964271 L31.6615173,34.9935098 L31.5608827,34.7251124 L33.0330763,34.7251124 L32.9324418,34.9935098 L34.0205233,39.0964271 L34.1372215,39.3510484 L32.9872474,39.3510484 Z M28.2522268,39.3510484 L28.2706529,39.0517734 L27.8851233,37.9962353 L27.5619589,37.9962353 L27.5619589,39.0745753 L27.699918,39.3510484 L26.5036426,39.3510484 L26.6416016,39.0745753 L26.6416016,35.0015854 L26.5036426,34.7251124 L28.7582343,34.7251124 L29.4022009,35.3725914 L29.4022009,37.3487563 L29.4022009,37.3487563 L28.8347733,37.9188039 L29.2505404,38.9976189 L29.4943311,39.3510484 L28.2522268,39.3510484 Z M24.2060567,39.3510484 L24.2197581,39.1244544 L23.3886963,37.3981604 L23.2398706,37.3981604 L23.2398706,39.0745753 L23.3778297,39.3510484 L22.1815543,39.3510484 L22.3195134,39.0745753 L22.3195134,35.0015854 L22.1815543,34.7251124 L23.3778297,34.7251124 L23.2398706,35.0015854 L23.2398706,36.4727832 L23.399563,36.4727832 L24.2192857,34.9455308 L24.2060567,34.7251124 L25.4023321,34.7251124 L25.1788573,35.0091861 L24.183851,36.8162369 L25.2596484,38.9952437 L25.5402912,39.3510484 L24.2060567,39.3510484 Z M7.44119218,41.3585659 L64.5595638,41.3585659 L64.5595638,32.7175949 L7.44119218,32.7175949 L7.44119218,41.3585659 Z" id="Fill-10"></path>
                        <polygon id="Fill-11" points="7.44095595 63.9667472 7.44095595 52.2456192 13.2697276 52.2456192 13.2697276 54.5899398 9.93886596 54.5899398 9.93886596 56.9005326 12.436776 56.9005326 12.436776 59.0771643 9.93886596 59.0771643 9.93886596 61.6224266 13.2697276 61.6224266 13.2697276 63.9667472"></polygon>
                        <path d="M15.6339779,57.084848 C15.1841935,56.6326103 14.9678056,56.0468864 14.9678056,55.3267263 L14.9678056,53.9871145 C14.9678056,52.9320515 15.6670503,52.2123665 16.7329261,52.2123665 L19.863936,52.2123665 C20.9132755,52.2123665 21.6290565,52.9320515 21.6290565,53.9871145 L21.6290565,56.0131586 L19.1311464,56.0131586 L19.1311464,54.640294 C19.1311464,54.6065662 19.1146103,54.5899398 19.0810654,54.5899398 L17.5157967,54.5899398 C17.4827243,54.5899398 17.4657156,54.6065662 17.4657156,54.640294 L17.4657156,55.3604541 C17.4657156,55.4103333 17.4827243,55.4440611 17.5157967,55.4773139 L20.9628841,58.8933239 C21.4126686,59.3450866 21.6290565,59.9312855 21.6290565,60.6514456 L21.6290565,62.2252519 C21.6290565,63.280315 20.9132755,64 19.863936,64 L16.7329261,64 C15.6670503,64 14.9678056,63.280315 14.9678056,62.2252519 L14.9678056,60.1992079 L17.4657156,60.1992079 L17.4657156,61.5720724 C17.4657156,61.6058002 17.4827243,61.6224266 17.5157967,61.6224266 L19.0810654,61.6224266 C19.1146103,61.6224266 19.1311464,61.6058002 19.1311464,61.5720724 L19.1311464,60.6177178 C19.1311464,60.5678386 19.1146103,60.5341108 19.0810654,60.500858 L15.6339779,57.084848 Z" id="Fill-12"></path>
                        <path d="M26.2584817,54.5899398 L26.2584817,57.2691634 L27.8738315,57.2691634 C27.9073763,57.2691634 27.9239125,57.252537 27.9239125,57.2188092 L27.9239125,54.640294 C27.9239125,54.6065662 27.9073763,54.5899398 27.8738315,54.5899398 L26.2584817,54.5899398 Z M26.2584817,59.613009 L26.2584817,63.9667472 L23.7605717,63.9667472 L23.7605717,52.2456192 L28.6567021,52.2456192 C29.7055692,52.2456192 30.4218225,52.9657793 30.4218225,54.0208424 L30.4218225,57.8382609 C30.4218225,58.8933239 29.7225778,59.613009 28.6567021,59.613009 L26.2584817,59.613009 Z" id="Fill-13"></path>
                        <path d="M34.9008629,54.5899398 C34.8677905,54.5899398 34.8507819,54.6065662 34.8507819,54.640294 L34.8507819,61.5720724 C34.8507819,61.6058002 34.8677905,61.6224266 34.9008629,61.6224266 L36.4661316,61.6224266 C36.4996765,61.6224266 36.5162127,61.6058002 36.5162127,61.5720724 L36.5162127,54.640294 C36.5162127,54.6065662 36.4996765,54.5899398 36.4661316,54.5899398 L34.9008629,54.5899398 Z M34.1179923,64 C33.0691252,64 32.3528719,63.280315 32.3528719,62.2252519 L32.3528719,53.9871145 C32.3528719,52.9320515 33.0691252,52.2123665 34.1179923,52.2123665 L37.2490023,52.2123665 C38.2983418,52.2123665 39.0141227,52.9320515 39.0141227,53.9871145 L39.0141227,62.2252519 C39.0141227,63.280315 38.2983418,64 37.2490023,64 L34.1179923,64 Z" id="Fill-14"></path>
                        <path d="M43.6433117,57.2690209 L45.2586615,57.2690209 C45.2922063,57.2690209 45.3087425,57.2523945 45.3087425,57.2186667 L45.3087425,54.6401515 C45.3087425,54.6064237 45.2922063,54.5897973 45.2586615,54.5897973 L43.6433117,54.5897973 L43.6433117,57.2690209 Z M45.3753598,63.9666047 L44.2764116,59.6133415 L43.6433117,59.6133415 L43.6433117,63.9666047 L41.1454017,63.9666047 L41.1454017,52.2459518 L46.0415321,52.2459518 C47.0903992,52.2459518 47.8066525,52.9656368 47.8066525,54.0206999 L47.8066525,57.8381184 C47.8066525,58.6589869 47.3738768,59.2784385 46.6576234,59.5292595 L47.9734319,63.9666047 L45.3753598,63.9666047 Z" id="Fill-15"></path>
                        <polygon id="Fill-16" points="54.1015086 54.5899398 54.1015086 63.9667472 51.6035986 63.9667472 51.6035986 54.5899398 49.5214557 54.5899398 49.5214557 52.2456192 56.183179 52.2456192 56.183179 54.5899398"></polygon>
                        <path d="M58.5639183,57.084848 C58.1141339,56.6326103 57.897746,56.0468864 57.897746,55.3267263 L57.897746,53.9871145 C57.897746,52.9320515 58.5969907,52.2123665 59.6628664,52.2123665 L62.7938764,52.2123665 C63.8432159,52.2123665 64.5589968,52.9320515 64.5589968,53.9871145 L64.5589968,56.0131586 L62.0610868,56.0131586 L62.0610868,54.640294 C62.0610868,54.6065662 62.0445506,54.5899398 62.0110058,54.5899398 L60.445737,54.5899398 C60.4126646,54.5899398 60.395656,54.6065662 60.395656,54.640294 L60.395656,55.3604541 C60.395656,55.4103333 60.4126646,55.4440611 60.445737,55.4773139 L63.8928245,58.8933239 C64.3426089,59.3450866 64.5589968,59.9312855 64.5589968,60.6514456 L64.5589968,62.2252519 C64.5589968,63.280315 63.8432159,64 62.7938764,64 L59.6628664,64 C58.5969907,64 57.897746,63.280315 57.897746,62.2252519 L57.897746,60.1992079 L60.395656,60.1992079 L60.395656,61.5720724 C60.395656,61.6058002 60.4126646,61.6224266 60.445737,61.6224266 L62.0110058,61.6224266 C62.0445506,61.6224266 62.0610868,61.6058002 62.0610868,61.5720724 L62.0610868,60.6177178 C62.0610868,60.5678386 62.0445506,60.5341108 62.0110058,60.500858 L58.5639183,57.084848 Z" id="Fill-17"></path>
                    </g>
                    <g id="Krafton_Logo" transform="translate(121.000000, 12.000000)" fill-rule="nonzero">
                        <polygon id="Path" points="223.218605 39.9560155 222.020229 37.5689717 222.020229 18.4707889 230.409297 39.9557538 240 39.9557538 238.801165 37.5687099 238.801165 2.38853559 240 0.000968321704 229.611609 0.000968321704 230.810444 2.38984414 230.810444 21.4932611 222.418628 0.000444904567 212.830673 0.000444904567 214.02952 2.38932072 214.02952 37.566878 212.830673 39.9553612"></polygon>
                        <path d="M186.841114,8.00139927 L195.631382,8.00139927 L195.631382,31.9739042 L186.841114,31.9739042 L186.841114,8.00139927 Z M198.028632,39.9651753 L203.621213,34.3731175 L203.622129,34.3731175 L203.622129,5.60480305 L198.028632,0.0113058102 L184.44334,0.0113058102 L178.849843,5.60480305 L178.849843,34.3731175 L178.850766,34.3731175 L184.443347,39.9651753 L198.028632,39.9651753 Z" id="Shape"></path>
                        <polygon id="Path" points="162.858141 39.9560155 161.659764 37.5689717 161.659764 7.99197776 168.054613 7.99197776 170.449508 9.19404447 170.449508 0.000745869421 144.896284 0.000745869421 144.896284 9.19404447 147.290786 7.99197776 153.668101 7.99197776 153.668101 37.5676631 152.469266 39.9561464"></polygon>
                        <polygon id="Path" points="123.266869 39.9560155 122.06895 37.5689717 122.06895 24.0530326 130.059698 24.0530326 132.456425 25.2560284 132.456425 14.8570384 130.059174 16.0604922 130.059174 16.0618007 122.06895 16.0618007 122.06895 7.99123189 134.057296 7.99123189 136.451799 9.1932986 136.451799 0 112.8784 0 114.077234 2.38887582 114.077234 37.5664331 112.8784 39.9549163"></polygon>
                        <path d="M84.3939865,25.4311899 L87.8442215,12.1586399 L91.293933,25.4311899 L84.3939865,25.4311899 Z M103.825848,39.9560155 L102.809346,37.757271 L93.3631056,2.32193076 L94.2365056,0.00136088456 L81.4508643,0.00136088456 L82.3247223,2.32193076 L72.8780898,37.757271 L71.8620586,39.9560155 L81.8506896,39.9560155 L81.3858297,37.0030269 L82.4000159,33.1027841 L93.2874849,33.1027841 L94.301213,37.0030269 L93.8372823,39.9560155 L103.825848,39.9560155 Z" id="Shape"></path>
                        <path d="M46.7232626,8.00139927 L54.7153189,8.00139927 L54.7153189,20.2718672 L46.7232626,20.2718672 L46.7232626,8.00139927 Z M37.5332354,0.0103898302 L38.73207,2.39913479 L38.73207,37.5766921 L37.5332354,39.9646519 L47.9216261,39.9646519 L46.7232495,37.577608 L46.7232495,28.2624841 L49.5294196,28.2624841 L52.8785042,37.38185 L52.7178544,39.9646519 L63.5056124,39.9646519 L61.3899604,36.9128683 L57.7791673,27.595389 L62.7051768,22.6699028 L62.7065638,22.6699028 L62.7065638,5.60388707 L57.1125432,0.0103898302 L37.5332354,0.0103898302 Z" id="Shape"></path>
                        <polygon id="Path" points="29.1669358 39.9560155 26.7300365 36.8815941 17.3880874 18.0621309 26.0315363 2.45644897 27.9685723 0.00109917599 17.5801815 0.00109917599 17.698814 1.9062067 10.5777238 15.0989357 9.1896216 15.0989357 9.1896216 2.38905901 10.3879982 0.00149173884 0 0.00149173884 1.19883461 2.39036755 1.19883461 37.5679248 0 39.9564081 10.3879982 39.9564081 9.1896216 37.5693642 9.1896216 23.0903377 10.48309 23.0903377 17.7019283 37.9985663 17.5800637 39.9562772"></polygon>
                    </g>
                    <rect id="Rectangle" x="96" y="0" width="1" height="64"></rect>
                </g>
            </g>
        </g>
    </g>
</svg>